<svg width="32" height="32" viewBox="0 0 32 32" fill="none" xmlns="http://www.w3.org/2000/svg">
<path d="M13.8701 9.66998L10.4501 11.75L8.89007 9.19C8.32007 8.25 8.62006 7.01 9.56006 6.44C10.5001 5.87 11.7401 6.16998 12.3101 7.10998L13.8701 9.66998Z" stroke="#292D32" stroke-width="1.5" stroke-linecap="round" stroke-linejoin="round"/>
<path d="M15.8201 13.16L12.6601 15.08C10.8201 16.2 10.2601 18.46 11.1501 20.26L13.2001 24.44C13.8601 25.79 15.4601 26.26 16.7401 25.47L23.1701 21.56C24.4601 20.78 24.7701 19.15 23.8801 17.94L21.1101 14.2C19.9101 12.58 17.6601 12.04 15.8201 13.16Z" stroke="#292D32" stroke-width="1.5" stroke-linecap="round" stroke-linejoin="round"/>
<path d="M14.7567 9.09797L9.63208 12.2186L11.7125 15.635L16.8371 12.5144L14.7567 9.09797Z" stroke="#292D32" stroke-width="1.5" stroke-linecap="round" stroke-linejoin="round"/>
<path d="M18.3101 20.81L19.9601 23.52" stroke="#292D32" stroke-width="1.5" stroke-linecap="round" stroke-linejoin="round"/>
<path d="M15.75 22.37L17.4 25.08" stroke="#292D32" stroke-width="1.5" stroke-linecap="round" stroke-linejoin="round"/>
<path d="M20.8701 19.25L22.5201 21.96" stroke="#292D32" stroke-width="1.5" stroke-linecap="round" stroke-linejoin="round"/>
</svg>
