<svg width="19" height="19" viewBox="0 0 19 19" fill="none" xmlns="http://www.w3.org/2000/svg">
<g clip-path="url(#clip0_232_16593)">
<path d="M17.2664 3.11931C16.0472 6.15931 12.9914 10.2918 10.4343 12.3422L8.8747 13.5931C8.67678 13.7356 8.47887 13.8622 8.2572 13.9493C8.2572 13.8068 8.24928 13.6485 8.22553 13.4981C8.13845 12.8331 7.83762 12.2156 7.3072 11.6851C6.76887 11.1468 6.11178 10.8301 5.43887 10.7431C5.28053 10.7351 5.1222 10.7193 4.96387 10.7351C5.05095 10.4897 5.18553 10.2601 5.35178 10.0701L6.58678 8.51056C8.62928 5.95348 12.7776 2.88181 15.8097 1.67056C16.2768 1.4964 16.728 1.62306 17.013 1.91598C17.3139 2.2089 17.4564 2.66015 17.2664 3.11931Z" stroke="#FA5A30" stroke-linecap="round" stroke-linejoin="round"/>
<path d="M8.25685 13.9494C8.25685 14.8202 7.92435 15.6515 7.29894 16.2848C6.81602 16.7677 6.15894 17.1002 5.37519 17.2031L3.42769 17.4169C2.36685 17.5356 1.45644 16.6331 1.5831 15.5565L1.79685 13.609C1.98685 11.8752 3.4356 10.7669 4.97144 10.7352C5.12977 10.7273 5.29602 10.7352 5.44644 10.7431C6.11935 10.8302 6.77644 11.139 7.31477 11.6852C7.84519 12.2156 8.14602 12.8331 8.2331 13.4981C8.24102 13.6485 8.25685 13.799 8.25685 13.9494Z" stroke="#FA5A30" stroke-linecap="round" stroke-linejoin="round"/>
<path d="M11.2734 11.4555C11.2734 9.38927 9.59506 7.71094 7.52881 7.71094" stroke="#FA5A30" stroke-linecap="round" stroke-linejoin="round"/>
</g>
<defs>
<clipPath id="clip0_232_16593">
<rect width="19" height="19" fill="white"/>
</clipPath>
</defs>
</svg>
