<svg width="32" height="32" viewBox="0 0 32 32" fill="none" xmlns="http://www.w3.org/2000/svg">
<rect width="32" height="32" rx="16" fill="#EBEBEB" fill-opacity="0.5"/>
<path fill-rule="evenodd" clip-rule="evenodd" d="M9.95495 8.89428C9.66206 8.60139 9.18718 8.60139 8.89429 8.89428C8.6014 9.18718 8.6014 9.66205 8.89429 9.95494L14.7279 15.7886L8.89429 21.6222C8.6014 21.9151 8.6014 22.39 8.89429 22.6829C9.18718 22.9758 9.66206 22.9758 9.95495 22.6829L15.7886 16.8492L21.6222 22.6829C21.9151 22.9758 22.39 22.9758 22.6829 22.6829C22.9758 22.39 22.9758 21.9151 22.6829 21.6222L16.8492 15.7886L22.6829 9.95494C22.9758 9.66205 22.9758 9.18718 22.6829 8.89428C22.39 8.60139 21.9151 8.60139 21.6222 8.89428L15.7886 14.7279L9.95495 8.89428Z" fill="black"/>
</svg>
