<svg width="32" height="32" viewBox="0 0 32 32" fill="none" xmlns="http://www.w3.org/2000/svg">
<path d="M18.9 6H13.1C12.42 6 11.46 6.4 10.98 6.88L6.88 10.98C6.4 11.46 6 12.42 6 13.1V18.9C6 19.58 6.4 20.54 6.88 21.02L10.98 25.12C11.46 25.6 12.42 26 13.1 26H18.9C19.58 26 20.54 25.6 21.02 25.12L25.12 21.02C25.6 20.54 26 19.58 26 18.9V13.1C26 12.42 25.6 11.46 25.12 10.98L21.02 6.88C20.54 6.4 19.58 6 18.9 6Z" stroke="#F63F3F" stroke-width="1.5" stroke-linecap="round" stroke-linejoin="round"/>
<path d="M12.5 19.5L19.5 12.5" stroke="#F63F3F" stroke-width="1.5" stroke-linecap="round" stroke-linejoin="round"/>
<path d="M19.5 19.5L12.5 12.5" stroke="#F63F3F" stroke-width="1.5" stroke-linecap="round" stroke-linejoin="round"/>
</svg>
