<svg width="32" height="32" viewBox="0 0 32 32" fill="none" xmlns="http://www.w3.org/2000/svg">
<path d="M6.29004 11.78V21.51C6.29004 23.41 7.64004 24.19 9.28004 23.25L11.63 21.91C12.14 21.62 12.99 21.59 13.52 21.86L18.77 24.49C19.3 24.75 20.15 24.73 20.66 24.44L24.99 21.96C25.54 21.64 26 20.86 26 20.22V10.49C26 8.58998 24.65 7.80998 23.01 8.74998L20.66 10.09C20.15 10.38 19.3 10.41 18.77 10.14L13.52 7.51998C12.99 7.25998 12.14 7.27998 11.63 7.56998L7.30004 10.05C6.74004 10.37 6.29004 11.15 6.29004 11.78Z" stroke="#636566" stroke-width="1.5" stroke-linecap="round" stroke-linejoin="round"/>
<path d="M12.5601 8V21" stroke="#636566" stroke-width="1.5" stroke-linecap="round" stroke-linejoin="round"/>
<path d="M19.73 10.6201V24.0001" stroke="#636566" stroke-width="1.5" stroke-linecap="round" stroke-linejoin="round"/>
</svg>
