<svg width="32" height="32" viewBox="0 0 32 32" fill="none" xmlns="http://www.w3.org/2000/svg">
<path d="M10.6895 7.14916C10.8806 7.04491 11.0837 7.20529 11.0837 7.423V21.8908C11.0837 22.114 10.9317 22.3032 10.7329 22.4048C10.7183 22.4123 10.7038 22.4199 10.6895 22.4277L8.1857 23.8554C6.43836 24.857 5 24.0259 5 22.0016V11.6347C5 10.9635 5.47945 10.1324 6.07611 9.79148L10.6895 7.14916Z" fill="#356670"/>
<path d="M18.2638 9.8562C18.4341 9.94056 18.5419 10.1142 18.5419 10.3043V24.3907C18.5419 24.7592 18.1568 25.0011 17.8248 24.8411L13.2312 22.628C13.0582 22.5447 12.9482 22.3696 12.9482 22.1776V8.02933C12.9482 7.65847 13.3378 7.41668 13.6701 7.58127L18.2638 9.8562Z" fill="#356670"/>
<path d="M26.0001 10.2603V20.6271C26.0001 21.2984 25.5207 22.1294 24.924 22.4704L21.1551 24.6304C20.8218 24.8214 20.4065 24.5807 20.4065 24.1965V10.0711C20.4065 9.89163 20.5027 9.7259 20.6586 9.63691L22.8144 8.4064C24.5618 7.40487 26.0001 8.23592 26.0001 10.2603Z" fill="#356670"/>
</svg>
