<svg width="32" height="32" viewBox="0 0 32 32" fill="none" xmlns="http://www.w3.org/2000/svg">
<g clip-path="url(#clip0_332_24598)">
<path d="M15.9999 6.19989C9.62661 6.19989 4.43994 11.3866 4.43994 17.7599C4.43994 24.1332 9.62661 29.3332 15.9999 29.3332C22.3733 29.3332 27.5599 24.1466 27.5599 17.7732C27.5599 11.3999 22.3733 6.19989 15.9999 6.19989ZM16.9999 17.3332C16.9999 17.8799 16.5466 18.3332 15.9999 18.3332C15.4533 18.3332 14.9999 17.8799 14.9999 17.3332V10.6666C14.9999 10.1199 15.4533 9.66656 15.9999 9.66656C16.5466 9.66656 16.9999 10.1199 16.9999 10.6666V17.3332Z" fill="#292D32"/>
<path d="M19.8534 4.60002H12.1468C11.6134 4.60002 11.1868 4.17335 11.1868 3.64002C11.1868 3.10669 11.6134 2.66669 12.1468 2.66669H19.8534C20.3868 2.66669 20.8134 3.09335 20.8134 3.62669C20.8134 4.16002 20.3868 4.60002 19.8534 4.60002Z" fill="#292D32"/>
</g>
<defs>
<clipPath id="clip0_332_24598">
<rect width="32" height="32" fill="white"/>
</clipPath>
</defs>
</svg>
