<svg width="32" height="32" viewBox="0 0 32 32" fill="none" xmlns="http://www.w3.org/2000/svg">
<g opacity="0.8">
<path d="M18.5299 13.47L13.4699 18.53C12.8199 17.88 12.4199 16.99 12.4199 16C12.4199 14.02 14.0199 12.42 15.9999 12.42C16.9899 12.42 17.8799 12.82 18.5299 13.47Z" stroke="#7E8484" stroke-width="1.5" stroke-linecap="round" stroke-linejoin="round"/>
<path d="M21.8201 9.76998C20.0701 8.44998 18.0701 7.72998 16.0001 7.72998C12.4701 7.72998 9.18009 9.80998 6.89009 13.41C5.99009 14.82 5.99009 17.19 6.89009 18.6C7.68009 19.84 8.60009 20.91 9.60009 21.77" stroke="#7E8484" stroke-width="1.5" stroke-linecap="round" stroke-linejoin="round"/>
<path d="M12.4199 23.5301C13.5599 24.0101 14.7699 24.2701 15.9999 24.2701C19.5299 24.2701 22.8199 22.1901 25.1099 18.5901C26.0099 17.1801 26.0099 14.8101 25.1099 13.4001C24.7799 12.8801 24.4199 12.3901 24.0499 11.9301" stroke="#7E8484" stroke-width="1.5" stroke-linecap="round" stroke-linejoin="round"/>
<path d="M19.5099 16.7C19.2499 18.11 18.0999 19.26 16.6899 19.52" stroke="#7E8484" stroke-width="1.5" stroke-linecap="round" stroke-linejoin="round"/>
<path d="M13.47 18.53L6 26" stroke="#7E8484" stroke-width="1.5" stroke-linecap="round" stroke-linejoin="round"/>
<path d="M26 6L18.53 13.47" stroke="#7E8484" stroke-width="1.5" stroke-linecap="round" stroke-linejoin="round"/>
</g>
</svg>
