<svg width="32" height="32" viewBox="0 0 32 32" fill="none" xmlns="http://www.w3.org/2000/svg">
<rect width="32" height="32" rx="16" fill="#EBEBEB" fill-opacity="0.5"/>
<path d="M20.44 7.09998C18.63 7.09998 17.01 7.97998 16 9.32998C14.99 7.97998 13.37 7.09998 11.56 7.09998C8.49 7.09998 6 9.59998 6 12.69C6 13.88 6.19 14.98 6.52 16C8.1 21 12.97 23.99 15.38 24.81C15.72 24.93 16.28 24.93 16.62 24.81C19.03 23.99 23.9 21 25.48 16C25.81 14.98 26 13.88 26 12.69C26 9.59998 23.51 7.09998 20.44 7.09998Z" fill="#F63F3F"/>
</svg>
