<svg width="108" height="108" viewBox="0 0 108 108" fill="none" xmlns="http://www.w3.org/2000/svg">
<path d="M77.0767 55.265L72.4 50.5883C71.2884 49.63 70.6367 48.2117 70.5984 46.64C70.5217 44.915 71.2117 43.19 72.4767 41.925L77.0767 37.325C81.0634 33.3383 82.5584 29.505 81.2934 26.4767C80.0667 23.4867 76.2717 21.8383 70.675 21.8383H30.6167V18.5417C30.6167 16.97 29.3134 15.6667 27.7417 15.6667C26.17 15.6667 24.8667 16.97 24.8667 18.5417V89.4583C24.8667 91.03 26.17 92.3333 27.7417 92.3333C29.3134 92.3333 30.6167 91.03 30.6167 89.4583V70.7517H70.675C76.195 70.7517 79.9134 69.065 81.1784 66.0367C82.4434 63.0083 80.9867 59.2133 77.0767 55.265Z" fill="#292D32"/>
</svg>
