<svg width="19" height="19" viewBox="0 0 19 19" fill="none" xmlns="http://www.w3.org/2000/svg">
<path d="M7.12516 17.4168H11.8752C15.8335 17.4168 17.4168 15.8335 17.4168 11.8752V7.12516C17.4168 3.16683 15.8335 1.5835 11.8752 1.5835H7.12516C3.16683 1.5835 1.5835 3.16683 1.5835 7.12516V11.8752C1.5835 15.8335 3.16683 17.4168 7.12516 17.4168Z" stroke="#FA5A30" stroke-linecap="round" stroke-linejoin="round"/>
<path d="M7.12484 7.91667C7.99929 7.91667 8.70817 7.20778 8.70817 6.33333C8.70817 5.45888 7.99929 4.75 7.12484 4.75C6.25039 4.75 5.5415 5.45888 5.5415 6.33333C5.5415 7.20778 6.25039 7.91667 7.12484 7.91667Z" stroke="#FA5A30" stroke-linecap="round" stroke-linejoin="round"/>
<path d="M2.11377 15.0021L6.01669 12.3817C6.6421 11.9621 7.5446 12.0096 8.10669 12.4925L8.36794 12.7221C8.98544 13.2525 9.98294 13.2525 10.6004 12.7221L13.8938 9.89586C14.5113 9.36544 15.5088 9.36544 16.1263 9.89586L17.4167 11.0042" stroke="#FA5A30" stroke-linecap="round" stroke-linejoin="round"/>
</svg>
