<svg width="32" height="32" viewBox="0 0 32 32" fill="none" xmlns="http://www.w3.org/2000/svg">
<path d="M23.7899 18.93C21.7299 20.98 18.7799 21.61 16.1899 20.8L11.4799 25.5C11.1399 25.85 10.4699 26.06 9.9899 25.99L7.8099 25.69C7.0899 25.59 6.4199 24.91 6.3099 24.19L6.0099 22.01C5.9399 21.53 6.1699 20.86 6.4999 20.52L11.1999 15.82C10.3999 13.22 11.0199 10.27 13.0799 8.22001C16.0299 5.27001 20.8199 5.27001 23.7799 8.22001C26.7399 11.17 26.7399 15.98 23.7899 18.93Z" stroke="#292D32" stroke-width="1.5" stroke-miterlimit="10" stroke-linecap="round" stroke-linejoin="round"/>
<path d="M10.8899 21.49L13.1899 23.79" stroke="#292D32" stroke-width="1.5" stroke-miterlimit="10" stroke-linecap="round" stroke-linejoin="round"/>
<path d="M18.5 15C19.3284 15 20 14.3284 20 13.5C20 12.6716 19.3284 12 18.5 12C17.6716 12 17 12.6716 17 13.5C17 14.3284 17.6716 15 18.5 15Z" stroke="#292D32" stroke-width="1.5" stroke-linecap="round" stroke-linejoin="round"/>
</svg>
