<svg width="32" height="32" viewBox="0 0 32 32" fill="none" xmlns="http://www.w3.org/2000/svg">
<path d="M13 26H19C24 26 26 24 26 19V13C26 8 24 6 19 6H13C8 6 6 8 6 13V19C6 24 8 26 13 26Z" stroke="#292D32" stroke-width="1.5" stroke-linecap="round" stroke-linejoin="round"/>
<path d="M22.3801 19.27V11.58C22.3801 10.81 21.7601 10.25 21.0001 10.31H20.9601C19.6201 10.42 17.5901 11.11 16.4501 11.82L16.3401 11.89C16.1601 12 15.8501 12 15.6601 11.89L15.5001 11.79C14.3701 11.08 12.3401 10.41 11.0001 10.3C10.2401 10.24 9.62012 10.81 9.62012 11.57V19.27C9.62012 19.88 10.1201 20.46 10.7301 20.53L10.9101 20.56C12.2901 20.74 14.4301 21.45 15.6501 22.12L15.6801 22.13C15.8501 22.23 16.1301 22.23 16.2901 22.13C17.5101 21.45 19.6601 20.75 21.0501 20.56L21.2601 20.53C21.8801 20.46 22.3801 19.89 22.3801 19.27Z" stroke="#292D32" stroke-width="1.5" stroke-linecap="round" stroke-linejoin="round"/>
<path d="M16 12.1V21.66" stroke="#292D32" stroke-width="1.5" stroke-linecap="round" stroke-linejoin="round"/>
</svg>
