<svg width="30" height="30" viewBox="0 0 30 30" fill="none" xmlns="http://www.w3.org/2000/svg">
<path d="M6.2002 11.0438L6.2002 20.1657C6.2002 21.947 7.42363 22.6782 8.90988 21.797L11.0396 20.5407C11.5018 20.2688 12.2721 20.2407 12.7524 20.4938L17.5102 22.9595C17.9905 23.2032 18.7608 23.1845 19.223 22.9126L23.1471 20.5876C23.6455 20.2876 24.0624 19.5563 24.0624 18.9563V9.83447C24.0624 8.05322 22.8389 7.32197 21.3527 8.20322L19.223 9.45947C18.7608 9.73135 17.9905 9.75947 17.5102 9.50635L12.7524 7.0501C12.2721 6.80635 11.5018 6.8251 11.0396 7.09697L7.11551 9.42197C6.60801 9.72197 6.2002 10.4532 6.2002 11.0438Z" stroke="white" stroke-width="1.5" stroke-linecap="round" stroke-linejoin="round"/>
<path d="M11.8823 7.5L11.8823 19.6875" stroke="white" stroke-width="1.5" stroke-linecap="round" stroke-linejoin="round"/>
<path d="M18.3804 9.95605V22.4998" stroke="white" stroke-width="1.5" stroke-linecap="round" stroke-linejoin="round"/>
</svg>
