<svg width="30" height="30" viewBox="0 0 30 30" fill="none" xmlns="http://www.w3.org/2000/svg">
<path d="M25.5 12V18C25.5 20.5 25 22.25 23.88 23.38L17.5 17L25.23 9.27002C25.41 10.06 25.5 10.96 25.5 12Z" stroke="#EBEBEB" stroke-width="1.5" stroke-linecap="round" stroke-linejoin="round"/>
<path d="M25.23 9.27L9.76999 24.73C6.75999 24.04 5.5 21.96 5.5 18L5.5 12C5.5 7 7.5 5 12.5 5L18.5 5C22.46 5 24.54 6.26 25.23 9.27Z" stroke="#EBEBEB" stroke-width="1.5" stroke-linecap="round" stroke-linejoin="round"/>
<path d="M23.88 23.38C22.75 24.5 21 25 18.5 25H12.5C11.46 25 10.56 24.91 9.77002 24.73L17.5 17L23.88 23.38Z" stroke="#EBEBEB" stroke-width="1.5" stroke-linecap="round" stroke-linejoin="round"/>
<path d="M9.73977 10.9802C10.4198 8.05021 14.8198 8.05021 15.4998 10.9802C15.8898 12.7002 14.8098 14.1602 13.8598 15.0602C13.1698 15.7202 12.0798 15.7202 11.3798 15.0602C10.4298 14.1602 9.33977 12.7002 9.73977 10.9802Z" stroke="#EBEBEB" stroke-width="1.5"/>
<path d="M12.5946 11.7002H12.6036" stroke="#EBEBEB" stroke-width="2" stroke-linecap="round" stroke-linejoin="round"/>
</svg>
