<svg width="32" height="32" viewBox="0 0 32 32" fill="none" xmlns="http://www.w3.org/2000/svg">
<path d="M16.37 6.15003L25.37 9.75C25.72 9.89 26 10.31 26 10.68V14C26 14.55 25.55 15 25 15H7C6.45 15 6 14.55 6 14V10.68C6 10.31 6.28 9.89 6.63 9.75L15.63 6.15003C15.83 6.07003 16.17 6.07003 16.37 6.15003Z" stroke="#292D32" stroke-width="1.5" stroke-miterlimit="10" stroke-linecap="round" stroke-linejoin="round"/>
<path d="M26 26H6V23C6 22.45 6.45 22 7 22H25C25.55 22 26 22.45 26 23V26Z" stroke="#292D32" stroke-width="1.5" stroke-miterlimit="10" stroke-linecap="round" stroke-linejoin="round"/>
<path d="M8 22V15" stroke="#292D32" stroke-width="1.5" stroke-miterlimit="10" stroke-linecap="round" stroke-linejoin="round"/>
<path d="M12 22V15" stroke="#292D32" stroke-width="1.5" stroke-miterlimit="10" stroke-linecap="round" stroke-linejoin="round"/>
<path d="M16 22V15" stroke="#292D32" stroke-width="1.5" stroke-miterlimit="10" stroke-linecap="round" stroke-linejoin="round"/>
<path d="M20 22V15" stroke="#292D32" stroke-width="1.5" stroke-miterlimit="10" stroke-linecap="round" stroke-linejoin="round"/>
<path d="M24 22V15" stroke="#292D32" stroke-width="1.5" stroke-miterlimit="10" stroke-linecap="round" stroke-linejoin="round"/>
<path d="M5 26H27" stroke="#292D32" stroke-width="1.5" stroke-miterlimit="10" stroke-linecap="round" stroke-linejoin="round"/>
<path d="M16 12.5C16.8284 12.5 17.5 11.8284 17.5 11C17.5 10.1716 16.8284 9.5 16 9.5C15.1716 9.5 14.5 10.1716 14.5 11C14.5 11.8284 15.1716 12.5 16 12.5Z" stroke="#292D32" stroke-width="1.5" stroke-miterlimit="10" stroke-linecap="round" stroke-linejoin="round"/>
</svg>
