<svg width="40" height="40" viewBox="0 0 40 40" fill="none" xmlns="http://www.w3.org/2000/svg">
<path d="M34.4837 23.1993C34.467 23.1993 34.467 23.1827 34.467 23.1827V23.166C33.0003 21.6327 30.9503 20.666 28.667 20.666C24.2503 20.666 20.667 24.2494 20.667 28.666C20.667 30.716 21.4503 32.5827 22.717 33.9993C24.1837 35.6327 26.3003 36.666 28.667 36.666C33.0837 36.666 36.667 33.0827 36.667 28.666C36.667 26.5494 35.8337 24.6327 34.4837 23.1993ZM31.6837 31.7827C31.4503 32.016 31.117 32.1494 30.8003 32.1494C30.4837 32.1494 30.167 32.016 29.917 31.7827L28.6837 30.5493L27.417 31.8327C27.167 32.066 26.8503 32.1993 26.5337 32.1993C26.367 32.1993 26.217 32.166 26.067 32.0993C25.917 32.0493 25.767 31.9494 25.6503 31.8327C25.1503 31.3327 25.1503 30.5494 25.6503 30.066L26.917 28.7827L25.7003 27.5494C25.2003 27.066 25.2003 26.266 25.7003 25.7827C26.1837 25.2993 26.967 25.2993 27.467 25.7827L28.6837 27.016L29.867 25.8327C30.367 25.3493 31.1503 25.3493 31.6337 25.8327C31.917 26.116 32.0337 26.4827 31.9837 26.8494C31.967 27.1327 31.8503 27.3993 31.6337 27.5993L30.4503 28.7827L31.6837 30.016C32.1837 30.4993 32.1837 31.2827 31.6837 31.7827Z" fill="#FA5A30"/>
<path d="M36.6663 14.5501C36.6663 16.5334 36.3497 18.3667 35.7997 20.0667C35.6997 20.4167 35.283 20.5167 34.983 20.3001C33.1663 18.9501 30.9497 18.2334 28.6663 18.2334C22.883 18.2334 18.1663 22.9501 18.1663 28.7334C18.1663 30.5334 18.633 32.3001 19.5163 33.8667C19.783 34.3334 19.4663 34.9334 18.9663 34.7501C14.9497 33.3834 6.83301 28.4001 4.19967 20.0667C3.64967 18.3667 3.33301 16.5334 3.33301 14.5501C3.33301 9.40006 7.48301 5.2334 12.5997 5.2334C15.6163 5.2334 18.3163 6.70006 19.9997 8.95006C21.683 6.70006 24.383 5.2334 27.3997 5.2334C32.5163 5.2334 36.6663 9.40006 36.6663 14.5501Z" fill="#FA5A30"/>
</svg>
