<svg width="19" height="19" viewBox="0 0 19 19" fill="none" xmlns="http://www.w3.org/2000/svg">
<g clip-path="url(#clip0_710_24487)">
<path d="M7.12492 17.4168H11.8749C15.8333 17.4168 17.4166 15.8335 17.4166 11.8752V7.12516C17.4166 3.16683 15.8333 1.5835 11.8749 1.5835H7.12492C3.16659 1.5835 1.58325 3.16683 1.58325 7.12516V11.8752C1.58325 15.8335 3.16659 17.4168 7.12492 17.4168Z" stroke="white" stroke-linecap="round" stroke-linejoin="round"/>
<path d="M7.12508 7.91667C7.99953 7.91667 8.70841 7.20778 8.70841 6.33333C8.70841 5.45888 7.99953 4.75 7.12508 4.75C6.25063 4.75 5.54175 5.45888 5.54175 6.33333C5.54175 7.20778 6.25063 7.91667 7.12508 7.91667Z" stroke="white" stroke-linecap="round" stroke-linejoin="round"/>
<path d="M2.11377 15.0021L6.01669 12.3817C6.6421 11.9621 7.5446 12.0096 8.10669 12.4925L8.36794 12.7221C8.98544 13.2525 9.98294 13.2525 10.6004 12.7221L13.8938 9.89586C14.5113 9.36544 15.5088 9.36544 16.1263 9.89586L17.4167 11.0042" stroke="white" stroke-linecap="round" stroke-linejoin="round"/>
</g>
<defs>
<clipPath id="clip0_710_24487">
<rect width="19" height="19" fill="white"/>
</clipPath>
</defs>
</svg>
