<svg width="32" height="32" viewBox="0 0 32 32" fill="none" xmlns="http://www.w3.org/2000/svg">
<path d="M16.6257 16.3189C16.5522 16.3084 16.4577 16.3084 16.3737 16.3189C14.5257 16.2559 13.0557 14.7439 13.0557 12.8854C13.0557 10.9849 14.5887 9.44141 16.4997 9.44141C18.4002 9.44141 19.9437 10.9849 19.9437 12.8854C19.9332 14.7439 18.4737 16.2559 16.6257 16.3189Z" stroke="#636566" stroke-width="1.5" stroke-linecap="round" stroke-linejoin="round"/>
<path d="M23.5769 23.2487C21.7079 24.9602 19.2299 25.9997 16.4999 25.9997C13.7699 25.9997 11.2919 24.9602 9.42285 23.2487C9.52785 22.2617 10.1579 21.2957 11.2814 20.5397C14.1584 18.6287 18.8624 18.6287 21.7184 20.5397C22.8419 21.2957 23.4719 22.2617 23.5769 23.2487Z" stroke="#636566" stroke-width="1.5" stroke-linecap="round" stroke-linejoin="round"/>
<path d="M16.5 26C22.299 26 27 21.299 27 15.5C27 9.70101 22.299 5 16.5 5C10.701 5 6 9.70101 6 15.5C6 21.299 10.701 26 16.5 26Z" stroke="#636566" stroke-width="1.5" stroke-linecap="round" stroke-linejoin="round"/>
</svg>
