<svg width="19" height="19" viewBox="0 0 19 19" fill="none" xmlns="http://www.w3.org/2000/svg">
<g clip-path="url(#clip0_232_16596)">
<path d="M15.0418 14.0519H3.9585C2.04266 14.0519 0.989746 12.999 0.989746 11.0832V7.9165C0.989746 6.00067 2.04266 4.94775 3.9585 4.94775H15.0418C16.9577 4.94775 18.0106 6.00067 18.0106 7.9165V11.0832C18.0106 12.999 16.9577 14.0519 15.0418 14.0519ZM3.9585 6.13525C2.70766 6.13525 2.17725 6.66567 2.17725 7.9165V11.0832C2.17725 12.334 2.70766 12.8644 3.9585 12.8644H15.0418C16.2927 12.8644 16.8231 12.334 16.8231 11.0832V7.9165C16.8231 6.66567 16.2927 6.13525 15.0418 6.13525H3.9585Z" fill="#FA5A30"/>
<path d="M14.25 10.0936C13.9254 10.0936 13.6562 9.82442 13.6562 9.49984V5.5415C13.6562 5.21692 13.9254 4.94775 14.25 4.94775C14.5746 4.94775 14.8438 5.21692 14.8438 5.5415V9.49984C14.8438 9.82442 14.5746 10.0936 14.25 10.0936Z" fill="#FA5A30"/>
<path d="M4.75 9.30192C4.42542 9.30192 4.15625 9.03275 4.15625 8.70817V5.5415C4.15625 5.21692 4.42542 4.94775 4.75 4.94775C5.07458 4.94775 5.34375 5.21692 5.34375 5.5415V8.70817C5.34375 9.03275 5.07458 9.30192 4.75 9.30192Z" fill="#FA5A30"/>
<path d="M7.9165 10.0936C7.584 10.0936 7.32275 9.82442 7.32275 9.49192L7.36234 5.53359C7.36234 5.209 7.6315 4.94775 7.95609 4.94775C7.95609 4.94775 7.95609 4.94775 7.964 4.94775C8.28859 4.94775 8.55775 5.21692 8.54984 5.54942L8.51025 9.50775C8.51025 9.83234 8.24109 10.0936 7.9165 10.0936Z" fill="#FA5A30"/>
<path d="M11.0835 8.51025C10.7589 8.51025 10.4897 8.24109 10.4897 7.9165V5.5415C10.4897 5.21692 10.7589 4.94775 11.0835 4.94775C11.4081 4.94775 11.6772 5.21692 11.6772 5.5415V7.9165C11.6772 8.24109 11.4081 8.51025 11.0835 8.51025Z" fill="#FA5A30"/>
</g>
<defs>
<clipPath id="clip0_232_16596">
<rect width="19" height="19" fill="white"/>
</clipPath>
</defs>
</svg>
