<svg width="32" height="32" viewBox="0 0 32 32" fill="none" xmlns="http://www.w3.org/2000/svg">
<path d="M23.06 22.67L20.92 18.4L18.78 22.67" stroke="#292D32" stroke-width="1.5" stroke-linecap="round" stroke-linejoin="round"/>
<path d="M19.1699 21.91H22.6899" stroke="#292D32" stroke-width="1.5" stroke-linecap="round" stroke-linejoin="round"/>
<path d="M20.9201 26C18.1201 26 15.8401 23.73 15.8401 20.92C15.8401 18.12 18.1101 15.84 20.9201 15.84C23.7201 15.84 26.0001 18.11 26.0001 20.92C26.0001 23.73 23.7301 26 20.9201 26Z" stroke="#292D32" stroke-width="1.5" stroke-linecap="round" stroke-linejoin="round"/>
<path d="M9.02 6H12.94C15.01 6 16.01 7.00002 15.96 9.02002V12.94C16.01 15.01 15.01 16.01 12.94 15.96H9.02C7 16 6 15 6 12.93V9.01001C6 7.00001 7 6 9.02 6Z" stroke="#292D32" stroke-width="1.5" stroke-linecap="round" stroke-linejoin="round"/>
<path d="M13.0099 9.84998H8.94995" stroke="#292D32" stroke-width="1.5" stroke-linecap="round" stroke-linejoin="round"/>
<path d="M10.97 9.16998V9.84998" stroke="#292D32" stroke-width="1.5" stroke-linecap="round" stroke-linejoin="round"/>
<path d="M11.9899 9.84003C11.9899 11.59 10.6199 13.01 8.93994 13.01" stroke="#292D32" stroke-width="1.5" stroke-linecap="round" stroke-linejoin="round"/>
<path d="M13.0099 13.01C12.2799 13.01 11.6199 12.62 11.1599 12" stroke="#292D32" stroke-width="1.5" stroke-linecap="round" stroke-linejoin="round"/>
<path d="M6 19C6 22.87 9.13 26 13 26L11.95 24.25" stroke="#292D32" stroke-width="1.5" stroke-linecap="round" stroke-linejoin="round"/>
<path d="M26 13C26 9.13 22.87 6 19 6L20.05 7.75" stroke="#292D32" stroke-width="1.5" stroke-linecap="round" stroke-linejoin="round"/>
</svg>
