<svg width="40" height="40" viewBox="0 0 40 40" fill="none" xmlns="http://www.w3.org/2000/svg">
<rect x="0.5" y="0.5" width="39" height="39" rx="19.5" fill="white"/>
<path d="M14.76 30H25.24C28 30 29.1 28.31 29.23 26.25L29.75 17.99C29.89 15.83 28.17 14 26 14C25.39 14 24.83 13.65 24.55 13.11L23.83 11.66C23.37 10.75 22.17 10 21.15 10H18.86C17.83 10 16.63 10.75 16.17 11.66L15.45 13.11C15.17 13.65 14.61 14 14 14C11.83 14 10.11 15.83 10.25 17.99L10.77 26.25C10.89 28.31 12 30 14.76 30Z" stroke="#7E8484" stroke-width="1.5" stroke-linecap="round" stroke-linejoin="round"/>
<path d="M18.5 16H21.5" stroke="#7E8484" stroke-width="1.5" stroke-linecap="round" stroke-linejoin="round"/>
<path d="M20 26C21.79 26 23.25 24.54 23.25 22.75C23.25 20.96 21.79 19.5 20 19.5C18.21 19.5 16.75 20.96 16.75 22.75C16.75 24.54 18.21 26 20 26Z" stroke="#7E8484" stroke-width="1.5" stroke-linecap="round" stroke-linejoin="round"/>
<rect x="0.5" y="0.5" width="39" height="39" rx="19.5" stroke="#7E8484"/>
</svg>
