<svg width="305" height="91" viewBox="0 0 305 91" fill="none" xmlns="http://www.w3.org/2000/svg">
<path d="M72.7206 51.957V69.5367H82.6079V51.957H72.7206ZM46.2148 69.5367H56.1021V51.957H46.2148V69.5367ZM19.709 69.5367H29.6094V51.957H19.709V69.5367Z" fill="#EBEBEB"/>
<path d="M82.6079 39.7335V47.6958H72.7206V42.7308C72.7206 36.8405 70.2455 33.8432 64.4048 33.8432C58.5641 33.8432 56.1021 38.5085 56.1021 45.5717V47.6958H46.2148V42.7308C46.2148 36.8405 43.7397 33.8823 37.9776 33.8823C32.2154 33.8823 29.6748 38.5476 29.6748 45.6108V47.6958H19.709V26.7279H29.6094V38.4564C31.194 31.693 35.437 25.8809 43.5563 25.8809C51.4138 25.8809 55.6699 30.455 56.1021 38.5476C57.6081 31.7712 61.8511 25.8809 70.0621 25.8809C78.2732 25.8809 82.6079 30.8589 82.6079 39.7335Z" fill="#EBEBEB"/>
<path d="M92.5083 56.5182V26.7148H102.409V53.534C102.409 58.8118 104.177 62.4085 110.803 62.4085C118.045 62.4085 120.507 57.7562 120.507 50.68V26.7148H130.499V69.5368H120.481V57.8084C118.922 64.6109 114.509 70.3709 105.945 70.3709C97.6287 70.3709 92.5083 65.4058 92.5083 56.5182Z" fill="#EBEBEB"/>
<path d="M136.418 59.9458L142.246 53.7949C143.783 56.4933 146.022 58.7303 148.727 60.2712C151.432 61.812 154.504 62.5999 157.62 62.5522C161.864 62.5522 164.601 61.0535 164.601 57.978C164.601 54.9026 161.327 53.7558 156.56 52.622L150.824 51.2146C144.014 49.6248 137.728 46.6405 137.728 38.8215C137.728 31.0025 144.184 25.9854 154.072 25.9854C163.239 25.9854 169.708 30.377 172.406 35.2118L166.578 41.3627C165.237 39.0673 163.315 37.1616 161.004 35.8354C158.692 34.5093 156.072 33.809 153.404 33.8043C149.606 33.8043 147.052 35.3942 147.052 38.2872C147.052 41.1803 149.344 42.5095 155.172 44.0081L160.41 45.3113C170.048 47.7743 173.506 51.6447 173.506 57.7956C173.506 66.2271 166.355 70.4493 157.254 70.4493C148.152 70.4493 139.692 66.7223 136.418 59.9458Z" fill="#EBEBEB"/>
<path d="M179.412 60.297C179.412 54.2373 183.655 50.5493 190.635 47.8127L205.04 41.753C204.687 37.4395 202.748 34.5464 196.829 34.5464C194.191 34.5651 191.609 35.3041 189.365 36.6829C187.12 38.0617 185.299 40.0273 184.1 42.3654L178.102 35.3414C180.396 32.3334 183.37 29.9057 186.783 28.2552C190.196 26.6046 193.952 25.7776 197.746 25.8413C208.432 25.8413 214.443 31.901 214.443 42.4567V58.5377C214.443 60.4794 215.15 61.144 216.735 61.144H219.485V69.5886H213.382C208.786 69.5886 205.171 67.4774 205.171 61.3265V58.1077C203.862 63.7373 199.697 70.4095 190.674 70.4095C183.602 70.3704 179.412 66.461 179.412 60.297ZM194.249 62.76C200.797 62.76 205.21 58.8505 205.21 53.0905V48.5164L194.118 53.4293C190.399 55.0974 188.88 56.596 188.88 58.7983C188.893 61.2483 190.582 62.76 194.197 62.76H194.249Z" fill="#EBEBEB"/>
<path d="M227.067 69.5366V26.7146H237.033V38.8471C238.618 31.9924 242.952 25.8154 250.626 25.8154C256.022 25.8154 260.003 29.334 260.003 35.6674C260.068 38.6408 259.374 41.582 257.986 44.2161H247.824C249.501 42.3795 250.471 40.0111 250.561 37.5309C250.561 35.1591 249.422 33.2304 246.501 33.2304C241.551 33.2304 236.968 38.8471 236.968 45.9754V69.5366H227.067Z" fill="#EBEBEB"/>
<path d="M269.209 57.8478V34.3909H262.491V26.7152H269.209V21.5026L279.11 15.2734V26.7152H292.271V34.3648H279.11V55.463C279.11 60.1284 281.31 61.2752 284.23 61.2752C287.583 61.2752 290.058 58.5385 291.302 56.0625L294.392 64.8458C292.533 67.5694 288.29 70.4755 282.017 70.4755C273.898 70.5016 269.209 65.4062 269.209 57.8478Z" fill="#EBEBEB"/>
</svg>
